<?xml version="1.0" encoding="utf-8"?>
<!-- Generator: Adobe Illustrator 27.9.4, SVG Export Plug-In . SVG Version: 9.03 Build 54784)  -->
<svg version="1.1" id="Layer_1" xmlns="http://www.w3.org/2000/svg" xmlns:xlink="http://www.w3.org/1999/xlink" x="0px" y="0px"
	 viewBox="0 0 962 180" style="enable-background:new 0 0 962 180;" xml:space="preserve">
<style type="text/css">
	.st0{fill:none;stroke:#FAFAFA;stroke-width:12;stroke-linecap:round;stroke-miterlimit:10;}
	.st1{enable-background:new    ;}
	.st2{fill:#FAFAFA;}
</style>
<g>
	<g>
		<path class="st0" d="M90,174c-46.4,0-84-37.6-84-84S43.6,6,90,6"/>
	</g>
	<g>
		<line class="st0" x1="90" y1="6" x2="222" y2="6"/>
		<path class="st0" d="M222,6c46.4,0,84,37.6,84,84s-37.6,84-84,84"/>
		<line class="st0" x1="222" y1="174" x2="90" y2="174"/>
		<circle class="st0" cx="156" cy="90" r="84"/>
		<g class="st1">
			<path class="st2" d="M373.6,4.9H390c2.8,0,5.4,0.3,7.8,0.9c2.5,0.5,4.7,1.3,6.8,2.3c2.9,1.3,5.5,3.1,7.7,5.2
				c2.2,2.2,4,4.7,5.3,7.5c1.2,2.4,2.1,5,2.8,7.9c0.6,2.9,1,5.9,1,9.2v5.2c0,3.1-0.3,6.1-0.9,8.9c-0.6,2.8-1.5,5.4-2.6,7.7
				c-1.2,2.4-2.7,4.7-4.4,6.6c-1.8,2-3.8,3.7-6,5.1c-2.3,1.5-5,2.6-7.9,3.4c-2.9,0.8-6.1,1.2-9.5,1.2h-16.5V4.9z M382.7,68.6h7.3
				c2.6,0,5-0.4,7.1-1c2.1-0.6,4-1.5,5.7-2.6c1.8-1.2,3.3-2.6,4.6-4.3c1.3-1.7,2.3-3.6,3.1-5.7c0.7-1.7,1.1-3.6,1.5-5.6
				c0.3-2,0.5-4.1,0.5-6.3v-5.3c0-2.2-0.2-4.3-0.6-6.4c-0.3-2-0.9-3.9-1.5-5.7c-0.9-2.3-2.1-4.3-3.5-6.2c-1.5-1.8-3.3-3.3-5.4-4.5
				c-1.5-0.8-3.2-1.5-5.1-2c-1.9-0.5-4-0.7-6.2-0.8h-7.3V68.6z"/>
			<path class="st2" d="M443.8,47v29h-9V4.9h20.8c3.3,0.1,6.4,0.5,9.4,1.4s5.5,2.2,7.7,4c2.2,1.8,3.9,4,5.2,6.6
				c1.3,2.7,1.9,5.8,1.9,9.4c0,2.3-0.3,4.4-1,6.3c-0.7,1.9-1.6,3.7-2.8,5.2s-2.6,2.9-4.2,4.2c-1.6,1.2-3.4,2.2-5.4,3.1l15.1,30.4
				l0,0.6H472l-14-29H443.8z M455.9,39.6c2,0,3.9-0.3,5.7-1c1.8-0.6,3.4-1.5,4.7-2.6c1.3-1.1,2.4-2.5,3.2-4.2
				c0.8-1.6,1.2-3.5,1.2-5.7c0-2.3-0.4-4.3-1.1-6c-0.7-1.7-1.8-3.1-3.1-4.3c-1.3-1.1-2.9-2-4.8-2.6c-1.8-0.6-3.8-0.9-6-0.9h-11.9
				v27.2H455.9z"/>
			<path class="st2" d="M503.9,43.1v25.2h34.6V76h-43.7V4.9h43.2v7.7h-34.2v22.9h29.7v7.7H503.9z"/>
			<path class="st2" d="M564.7,57.6L559,76h-9l22.9-71.1h7.6L603.1,76h-9l-5.6-18.4H564.7z M586.1,49.7l-9.4-30.9l-9.5,30.9H586.1z"
				/>
			<path class="st2" d="M636,40.5l12.5-35.5h11.2V76H651V47.6l0.7-29.7l-13.1,38.3h-5.2L621.3,19l0.7,28.7V76h-8.8V4.9h11.2
				L636,40.5z"/>
		</g>
		<g class="st1">
			<path class="st2" d="M418,161.7c-1.3,2.8-2.9,5.1-4.9,7.1c-2.1,2-4.5,3.5-7.3,4.6s-5.9,1.6-9.3,1.6c-2.9,0-5.6-0.4-8-1.2
				s-4.5-2-6.4-3.4c-1.9-1.5-3.5-3.2-4.9-5.2c-1.4-2-2.5-4.2-3.3-6.5c-0.9-2.3-1.6-4.8-2-7.4c-0.4-2.6-0.7-5.2-0.7-7.8v-9.9
				c0-2.6,0.3-5.2,0.7-7.8c0.4-2.6,1.1-5,2-7.4c0.9-2.3,2-4.5,3.3-6.5c1.4-2,3-3.7,4.9-5.2c1.9-1.5,4-2.6,6.3-3.4
				c2.4-0.8,5-1.2,8-1.2c3.5,0,6.7,0.5,9.5,1.6c2.8,1.1,5.2,2.6,7.2,4.6c2,2,3.6,4.4,4.9,7.2c1.2,2.8,2,5.9,2.4,9.3h-9
				c-0.3-2.1-0.8-4.2-1.5-6c-0.7-1.9-1.7-3.5-2.9-4.9c-1.2-1.4-2.7-2.5-4.4-3.3c-1.7-0.8-3.8-1.2-6.2-1.2c-2.1,0-4,0.4-5.7,1
				c-1.6,0.7-3.1,1.7-4.2,2.9c-1.2,1.2-2.2,2.6-3,4.2c-0.8,1.6-1.4,3.3-1.9,5.1c-0.5,1.8-0.8,3.6-1,5.5c-0.2,1.9-0.3,3.7-0.3,5.4v10
				c0,1.8,0.1,3.6,0.3,5.4c0.2,1.9,0.6,3.7,1,5.5c0.5,1.8,1.1,3.5,1.9,5.1c0.8,1.6,1.8,3,3,4.2c1.2,1.2,2.6,2.2,4.2,2.9
				c1.6,0.7,3.5,1,5.7,1c2.4,0,4.4-0.4,6.2-1.1c1.7-0.7,3.2-1.8,4.4-3.2c1.2-1.3,2.2-2.9,2.9-4.8c0.7-1.8,1.2-3.8,1.5-6h9
				C420.1,155.9,419.3,158.9,418,161.7z"/>
			<path class="st2" d="M480.1,150.2c-0.4,2.6-1,5.1-1.9,7.5c-0.8,2.4-1.9,4.7-3.2,6.7c-1.3,2.1-2.9,3.9-4.7,5.5
				c-1.8,1.6-3.9,2.8-6.3,3.7c-2.4,0.9-5,1.3-7.9,1.3s-5.6-0.4-7.9-1.3c-2.4-0.9-4.5-2.1-6.3-3.7c-1.8-1.6-3.4-3.4-4.7-5.5
				c-1.3-2.1-2.4-4.4-3.3-6.8c-0.9-2.4-1.5-4.9-2-7.5c-0.4-2.6-0.7-5.1-0.7-7.7v-8.1c0-2.5,0.3-5.1,0.7-7.7c0.4-2.6,1-5.1,1.9-7.5
				c0.8-2.4,1.9-4.7,3.2-6.8s2.9-3.9,4.7-5.5c1.8-1.6,3.9-2.8,6.3-3.7c2.4-0.9,5-1.3,7.9-1.3s5.6,0.4,8,1.3c2.4,0.9,4.5,2.1,6.3,3.7
				c1.8,1.6,3.4,3.4,4.7,5.5s2.4,4.4,3.3,6.8c0.8,2.4,1.5,4.9,1.9,7.5c0.4,2.6,0.6,5.2,0.7,7.7v8.1
				C480.7,145.1,480.5,147.7,480.1,150.2z M471.5,129.1c-0.2-1.8-0.5-3.7-1-5.5c-0.5-1.8-1.1-3.5-1.9-5.2c-0.8-1.6-1.8-3.1-2.9-4.4
				c-1.2-1.2-2.6-2.2-4.2-3c-1.6-0.7-3.5-1.1-5.6-1.1c-2.1,0-3.9,0.4-5.5,1.1c-1.6,0.7-3,1.7-4.2,3c-1.2,1.3-2.1,2.7-2.9,4.4
				c-0.8,1.6-1.4,3.4-1.9,5.2c-0.5,1.8-0.8,3.7-1,5.5c-0.2,1.8-0.3,3.6-0.4,5.2v8.2c0,1.7,0.2,3.4,0.4,5.3c0.2,1.9,0.6,3.7,1,5.5
				c0.5,1.8,1.1,3.6,1.9,5.2s1.8,3.1,2.9,4.3c1.2,1.3,2.6,2.3,4.2,3c1.6,0.7,3.5,1.1,5.6,1.1c2.1,0,4-0.4,5.6-1.1
				c1.6-0.7,3-1.8,4.2-3c1.1-1.2,2.1-2.7,2.9-4.3c0.8-1.6,1.4-3.4,1.9-5.2c0.5-1.8,0.8-3.6,1-5.5c0.2-1.9,0.3-3.6,0.3-5.3v-8.2
				C471.8,132.7,471.7,130.9,471.5,129.1z"/>
			<path class="st2" d="M516,138.5l12.5-35.5h11.2V174h-8.8v-28.4l0.7-29.7l-13.1,38.3h-5.2L501.3,117l0.7,28.7V174h-8.8v-71.1h11.2
				L516,138.5z"/>
			<path class="st2" d="M564.4,174h-9v-71.1h23c3.2,0.1,6.2,0.6,9.1,1.5c2.8,0.9,5.3,2.3,7.5,4.1c2.1,1.8,3.8,4,5.1,6.6
				s1.9,5.7,1.9,9.1s-0.6,6.4-1.9,9.1c-1.3,2.6-3,4.8-5.1,6.6c-2.1,1.8-4.6,3.2-7.5,4.1c-2.8,0.9-5.9,1.4-9.1,1.5h-14V174z
				 M578.4,138.1c2.1,0,4-0.4,5.8-1s3.3-1.5,4.6-2.7c1.3-1.2,2.3-2.6,3.1-4.3c0.7-1.7,1.1-3.6,1.1-5.7s-0.4-4.1-1.1-5.8
				c-0.7-1.7-1.7-3.2-3-4.4c-1.3-1.2-2.8-2.1-4.6-2.8c-1.8-0.7-3.7-1-5.8-1h-14v27.7H578.4z"/>
			<path class="st2" d="M659.3,151.1c0,3.3-0.6,6.4-1.8,9.3c-1.2,2.9-2.8,5.4-4.8,7.6c-2.1,2.2-4.5,3.9-7.3,5.2s-5.9,1.9-9.3,1.9
				c-3.5,0-6.6-0.6-9.4-1.9s-5.3-2.9-7.3-5.1c-2-2.1-3.6-4.7-4.7-7.6c-1.1-2.9-1.7-6-1.8-9.4l0.1-48.1h8.6l0.2,48.1
				c0,2.1,0.4,4.2,1,6.1s1.6,3.7,2.8,5.2c1.2,1.5,2.6,2.7,4.4,3.6c1.8,0.9,3.8,1.4,6.1,1.4c2.3,0,4.3-0.4,6.1-1.3
				c1.8-0.9,3.2-2.1,4.4-3.6c1.2-1.5,2.1-3.2,2.7-5.2c0.6-2,1-4,1-6.1l0.1-48.1h8.7L659.3,151.1z"/>
			<path class="st2" d="M700.5,110.6V174h-8.8v-63.4h-22v-7.7h52.7v7.7H700.5z"/>
			<path class="st2" d="M777.5,102.9v7.9h-17v55.4h17v7.8h-43v-7.8h16.7v-55.4h-16.7v-7.9H777.5z"/>
			<path class="st2" d="M829.9,174l-27.6-53.1l-0.1,53.1h-9.1v-71.1h9.2l27.6,53l0.1-53h9.1V174H829.9z"/>
			<path class="st2" d="M897.1,168.2c-1.2,1.1-2.5,2-3.9,2.8c-2.3,1.4-4.7,2.4-7.4,3.1s-5.4,1-8.3,1c-2.9,0-5.6-0.5-8.1-1.3
				s-4.7-2.1-6.6-3.6c-2-1.5-3.7-3.3-5.1-5.3s-2.7-4.3-3.7-6.7c-1-2.4-1.8-4.9-2.3-7.5c-0.5-2.6-0.8-5.3-0.8-7.9v-8.3
				c0-2.6,0.3-5.3,0.7-7.9c0.4-2.6,1.1-5.1,2-7.5c0.9-2.4,2.1-4.6,3.4-6.7c1.4-2.1,3-3.9,4.9-5.4c1.9-1.5,4-2.7,6.4-3.6
				c2.4-0.9,5.1-1.3,8.1-1.3c3.3,0,6.4,0.5,9.2,1.5c2.8,1,5.2,2.5,7.3,4.4c2.1,1.9,3.8,4.2,5,6.9s2.1,5.7,2.3,9h-8.9
				c-0.4-2.1-0.9-3.9-1.7-5.7c-0.7-1.7-1.7-3.2-2.9-4.5c-1.2-1.2-2.7-2.2-4.4-2.9c-1.7-0.7-3.7-1-5.9-1c-2.1,0-4.1,0.4-5.7,1.1
				s-3.1,1.7-4.3,3c-1.2,1.2-2.3,2.7-3.1,4.3c-0.8,1.6-1.5,3.4-2,5.2c-0.5,1.8-0.9,3.7-1.1,5.6c-0.2,1.9-0.3,3.7-0.3,5.5v8.3
				c0,1.8,0.2,3.6,0.5,5.5s0.7,3.8,1.3,5.6c0.6,1.8,1.3,3.5,2.2,5.2c0.9,1.6,2,3.1,3.3,4.3c1.3,1.2,2.8,2.2,4.4,3
				c1.7,0.7,3.6,1.1,5.8,1.1c1.2,0,2.5,0,3.9-0.1c1.4-0.1,2.7-0.4,3.9-0.8s2.5-0.9,3.6-1.6c1.1-0.7,2-1.5,2.8-2.6l0.1-16h-14.5v-7.6
				h23l0.1,26.1C899.5,166,898.3,167.2,897.1,168.2z"/>
		</g>
	</g>
</g>
</svg>
